<svg id="48d78fcd-59ca-41aa-a9e0-5cce03f71b97" data-name="Layer 1" xmlns="http://www.w3.org/2000/svg" viewBox="0 0 121.52 72.03"><title>darkbackgroundbloom</title><polygon points="97.25 58.18 0.38 58.18 0.38 15.9 121.15 15.9 121.15 58.18 108.71 58.18 103.32 66.15 97.25 58.18" fill="#293529"/><path d="M123.18,18.2V59.72H110.91l-.22.33-5,7.37L100.06,60l-.23-.3H3.15V18.2h120m.75-.75H2.4v43H99.46l6.28,8.24,5.57-8.24h12.62v-43Z" transform="translate(-2.4 -1.92)" fill="#79c143"/><path d="M12.51,24.33V52h3.14V48.19a7,7,0,0,0,6.48,4.07c4.37,0,7.62-3.88,7.62-9.88,0-5.77-3.14-9.39-7.62-9.39A6.72,6.72,0,0,0,16,36.35V26.52l-1.89,6-1.55-8.21Zm8.66,25.16c-3,0-5.22-2.59-5.22-6.92s2.11-7,5.33-7c2.85,0,4.85,2.59,4.85,7.07,0,4.29-2,6.81-5,6.81Z" transform="translate(-2.4 -1.92)" fill="#79c143"/><polygon points="35.34 23.41 31.9 23.41 31.9 50.05 35.34 50.05 35.34 23.41 35.34 23.41" fill="#79c143"/><path d="M51.4,33c-5.63,0-9.18,3.66-9.18,9.73s3.55,9.73,9.18,9.73,9.21-3.7,9.21-9.73S57.06,33,51.4,33Zm0,16.72c-3.26,0-5.55-2.77-5.55-7s2.29-7.06,5.55-7.06S57,38.28,57,42.64s-2.26,7-5.55,7Z" transform="translate(-2.4 -1.92)" fill="#79c143"/><path d="M73,33c-5.63,0-9.18,3.66-9.18,9.73s3.55,9.73,9.18,9.73,9.21-3.7,9.21-9.73S78.67,33,73,33Zm0,16.72c-3.25,0-5.55-2.77-5.55-7s2.3-7.06,5.55-7.06,5.55,2.7,5.55,7.06-2.25,7-5.55,7Z" transform="translate(-2.4 -1.92)" fill="#79c143"/><path d="M107.9,33a6.78,6.78,0,0,0-6.29,4,5.58,5.58,0,0,0-5.48-4A6.7,6.7,0,0,0,90,36.83V33.39H86.85V52h3.4V42.49c0-4.18,2-6.47,4.62-6.47s3.74,1.74,3.74,5.51V52h3.44V42.49c0-4.18,1.89-6.47,4.78-6.47,2.48,0,3.59,1.81,3.59,5.51V52h3.44V40.76c0-5.11-2.11-7.77-6-7.77Z" transform="translate(-2.4 -1.92)" fill="#79c143"/><path d="M14.12,60.43C14.12,65,17.29,70,29.57,70c21.06,0,76.11,0,76.11,0" transform="translate(-2.4 -1.92)" fill="none" stroke="#79c143" stroke-miterlimit="10" stroke-width="2"/><circle cx="103.28" cy="68.17" r="3.85" fill="#79c143"/><circle cx="19.03" cy="11.13" r="1.76" fill="#79c143"/><path d="M20.49,13.34l-.15,1.74c0,8.63-1.6,9.39-3,10A4.16,4.16,0,0,0,15.2,27V4.65H13.44v20a5.52,5.52,0,0,0-2.63-2.89C9.42,20.92,8.1,20.1,8.1,13.64V10.56H6.34v3.08c0,7.44,1.81,8.56,3.55,9.63,1.39.86,2.71,1.67,2.71,8.08v5h.84v.71H15.2v-.71l.72.32.09-.2,1.07.17-1-.45c0-.38.07-1.4.07-4.84,0-3.74.8-4.11,1.91-4.63,2.28-1.07,4-2.61,4-11.56l.15-1.67Z" transform="translate(-2.4 -1.92)" fill="#79c143"/><circle cx="11.97" cy="1.76" r="1.76" fill="#79c143"/><circle cx="4.87" cy="7.95" r="1.76" fill="#79c143"/></svg>